<?xml version="1.0" encoding="iso-8859-1"?>
<!-- Generator: Adobe Illustrator 19.0.0, SVG Export Plug-In . SVG Version: 6.00 Build 0)  -->
<svg version="1.1" id="Layer_1" xmlns="http://www.w3.org/2000/svg" xmlns:xlink="http://www.w3.org/1999/xlink" x="0px" y="0px"
	 viewBox="0 0 512 512" style="enable-background:new 0 0 512 512;" xml:space="preserve">
	 <!-- Waistcoat: -->
<path style="fill:#89209E;" d="M323.561,349.791H188.439c-52.239,0-94.586,42.347-94.586,94.586v67.622h324.294v-67.622
	C418.148,392.139,375.799,349.791,323.561,349.791z"/>
<g>
<!-- Hair: -->
	<path style="fill:#85A1A6;" d="M152.541,86.752c-30.289,0-54.843,24.554-54.843,54.843v38.504h54.843V86.752L152.541,86.752z"/>
	<path style="fill:#85A1A6;" d="M359.458,86.752c30.289,0,54.843,24.554,54.843,54.843v38.504h-54.843V86.752L359.458,86.752z"/>
</g>
<g>
<!-- Face: -->
	<path style="fill:#F4C49D;" d="M134.08,147.998c-22.218,0-40.228,18.01-40.228,40.228l0,0c0,22.218,18.01,40.227,40.228,40.227
		h18.461v-80.455H134.08z"/>
	<path style="fill:#F4C49D;" d="M377.92,147.998c22.218,0,40.228,18.01,40.228,40.228l0,0c0,22.218-18.01,40.227-40.228,40.227
		h-18.462v-80.455H377.92z"/>
	<rect x="221.329" y="282.194" style="fill:#F4C49D;" width="69.336" height="78.598"/>
</g>
<path style="opacity:0.1;fill:#333333;enable-background:new    ;" d="M221.33,330.565c11.124,2.691,22.731,4.127,34.67,4.127
	c11.939,0,23.546-1.437,34.67-4.127v-51.673h-69.34L221.33,330.565L221.33,330.565z"/>
<path style="fill:#FCCDA2;" d="M256,0L256,0c-69.285,0-125.452,56.167-125.452,125.452v65.087
	c0,69.285,56.167,125.452,125.452,125.452l0,0c69.285,0,125.452-56.167,125.452-125.452v-65.087C381.452,56.167,325.285,0,256,0z"/>
<path style="opacity:0.1;fill:#333333;enable-background:new    ;" d="M151.082,190.54v-65.087
	c0-65.828,50.703-119.808,115.184-125.031C262.88,0.146,259.457,0,256,0l0,0c-69.285,0-125.452,56.167-125.452,125.451v65.087
	c0,69.285,56.167,125.452,125.452,125.452l0,0c3.457,0,6.881-0.146,10.267-0.42C201.784,310.348,151.082,256.367,151.082,190.54z"/>
<g>
<!-- Eyes: -->
	<circle style="fill:#293133;" cx="197.183" cy="170.881" r="16.241"/> 
	<circle style="fill:#293133;" cx="314.822" cy="170.881" r="16.241"/>
</g>
<g>
<!-- Shirt: -->
	<path style="fill:#FFF9F2;" d="M152.542,356.862c-34.432,14.139-58.688,47.987-58.688,87.516V512h58.688V356.862z"/>
	<path style="fill:#FFF9F2;" d="M359.458,356.862c34.432,14.139,58.688,47.987,58.688,87.516V512h-58.688V356.862z"/>
	<path style="fill:#FFF9F2;" d="M256.003,466.107c0,0,55.177-77.436,82.087-115.204c-4.737-0.73-9.589-1.112-14.53-1.112H188.439
		c-4.939,0-9.788,0.382-14.524,1.111L256.003,466.107z"/>
</g>
<!-- Tie: -->
<polygon style="fill:#84EB00;" points="264.112,349.791 276.992,367.389 264.112,389.895 247.888,389.895 235.008,367.389 
	247.888,349.791 "/>
<polygon style="fill:#84EB00;" points="275.528,438.696 264.112,389.895 247.888,389.895 236.472,438.696 256.003,466.107 "/>
<!-- Moustash -->
<path style="fill:#85A1A6;" d="M256,253.632c44.444,30.527,72.383-8.082,72.383-8.082s-19.373,0.45-26.418-14.813
	c-18.199-41.682-45.964-29.94-45.964-29.94s-27.765-11.741-45.964,29.94c-7.045,15.264-26.418,14.813-26.418,14.813
	S211.556,284.159,256,253.632z"/>
<g>
	<path style="fill:#F4C49D;" d="M304.553,85.916h-97.106c-4.557,0-8.25-3.694-8.25-8.25c0-4.556,3.693-8.25,8.25-8.25h97.105
		c4.557,0,8.25,3.694,8.25,8.25C312.802,82.222,309.109,85.916,304.553,85.916z"/>
	<path style="fill:#F4C49D;" d="M317.468,115.269H194.532c-4.557,0-8.25-3.694-8.25-8.25c0-4.556,3.693-8.25,8.25-8.25h122.936
		c4.557,0,8.25,3.694,8.25,8.25C325.719,111.575,322.025,115.269,317.468,115.269z"/>
</g>
<g>
</g>
<g>
</g>
<g>
</g>
<g>
</g>
<g>
</g>
<g>
</g>
<g>
</g>
<g>
</g>
<g>
</g>
<g>
</g>
<g>
</g>
<g>
</g>
<g>
</g>
<g>
</g>
<g>
</g>
</svg>
