<?xml version="1.0" encoding="iso-8859-1"?>
<!-- Generator: Adobe Illustrator 19.0.0, SVG Export Plug-In . SVG Version: 6.00 Build 0)  -->
<svg version="1.1" id="Layer_1" xmlns="http://www.w3.org/2000/svg" xmlns:xlink="http://www.w3.org/1999/xlink" x="0px" y="0px"
	 viewBox="0 0 512.001 512.001" style="enable-background:new 0 0 512.001 512.001;" xml:space="preserve" stroke='#84EB00'>
<path style="fill:#E05161;" d="M256,41.226c-55.336,0-100.195,44.859-100.195,100.195h200.391
	C356.196,86.085,311.336,41.226,256,41.226z"/>
<path style="fill:#BD4A56;" d="M272.699,42.62c-5.431-0.911-11.009-1.393-16.699-1.393c-55.336,0-100.195,44.859-100.195,100.195
	h33.398C189.203,91.776,225.313,50.57,272.699,42.62z"/>
<path style="fill:#F9C900;" d="M355.397,141.421H156.603c-31.207,36.719-50.896,107.135-50.896,166.992
	c0,110.673,67.288,183.691,150.293,183.691s150.293-73.018,150.293-183.691C406.293,248.556,386.604,178.141,355.397,141.421z"/>
<path style="fill:#F9AA0C;" d="M155.805,433.658c0-55.336,44.859-100.195,100.195-100.195s100.195,44.859,100.195,100.195
	c0,5.521-0.454,10.935-1.313,16.213c31.505-32.226,51.411-81.271,51.411-141.457c0-59.857-19.689-130.273-50.896-166.992H156.603
	c-31.207,36.719-50.896,107.135-50.896,166.992c0,60.186,19.904,109.23,51.411,141.457
	C156.259,444.593,155.805,439.179,155.805,433.658z"/>
<path style="fill:#DE90C7;" d="M256,141.421l62.418,362.755c81.744-14.414,135.33-98.008,116.112-206.999
	c-10.394-58.947-42.012-124.875-79.121-155.617L256,141.421z"/>
<path style="fill:#C971C2;" d="M434.529,297.177c-10.394-58.947-42.012-124.875-79.121-155.617l-99.409-0.139l0.007,0.045
	l67.25,0.094c37.109,30.742,68.727,96.67,79.121,155.617c16.699,94.71-21.581,170.23-85.534,197.856l1.573,9.143
	C400.161,489.763,453.748,406.169,434.529,297.177z"/>
<g>
	<circle style="fill:#F5E038;" cx="314.446" cy="199.869" r="16.699"/>
	<circle style="fill:#F5E038;" cx="372.894" cy="249.966" r="16.699"/>
	<circle style="fill:#F5E038;" cx="331.146" cy="308.414" r="16.699"/>
	<circle style="fill:#F5E038;" cx="389.593" cy="358.511" r="16.699"/>
	<circle style="fill:#F5E038;" cx="356.195" cy="425.308" r="16.699"/>
</g>
<path style="fill:#DE90C7;" d="M256,141.421l-62.417,362.755c-81.744-14.414-135.33-98.008-116.112-206.999
	c10.394-58.947,42.012-124.875,79.121-155.617L256,141.421z"/>
<path style="fill:#C971C2;" d="M109.621,297.177c10.394-58.947,42.012-124.875,79.121-155.617l67.25-0.094l0.007-0.045
	l-99.409,0.139c-37.109,30.742-68.727,96.67-79.121,155.617c-19.218,108.992,34.368,192.585,116.112,206.999l1.573-9.143
	C131.202,467.407,92.922,391.887,109.621,297.177z"/>
<g>
	<circle style="fill:#F5E038;" cx="197.552" cy="199.869" r="16.699"/>
	<circle style="fill:#F5E038;" cx="139.105" cy="249.966" r="16.699"/>
	<circle style="fill:#F5E038;" cx="180.853" cy="308.414" r="16.699"/>
	<circle style="fill:#F5E038;" cx="122.406" cy="358.511" r="16.699"/>
	<circle style="fill:#F5E038;" cx="155.804" cy="425.308" r="16.699"/>
</g>
<path d="M338.974,199.869c0-13.524-11.003-24.527-24.527-24.527c-13.524,0-24.527,11.003-24.527,24.527
	c0,13.524,11.003,24.527,24.527,24.527C327.972,224.396,338.974,213.393,338.974,199.869z M305.576,199.869
	c0-4.892,3.98-8.871,8.871-8.871s8.871,3.98,8.871,8.871c0,4.892-3.98,8.871-8.871,8.871S305.576,204.761,305.576,199.869z"/>
<path d="M372.895,274.493c13.524,0,24.527-11.003,24.527-24.527c0-13.524-11.003-24.527-24.527-24.527s-24.527,11.003-24.527,24.527
	C348.368,263.491,359.37,274.493,372.895,274.493z M372.895,241.095c4.892,0,8.871,3.98,8.871,8.871c0,4.892-3.98,8.871-8.871,8.871
	s-8.871-3.98-8.871-8.871C364.023,245.075,368.003,241.095,372.895,241.095z"/>
<path d="M355.674,308.414c0-13.524-11.003-24.527-24.527-24.527c-13.524,0-24.527,11.003-24.527,24.527
	c0,13.524,11.003,24.527,24.527,24.527C344.671,332.941,355.674,321.938,355.674,308.414z M331.147,317.285
	c-4.892,0-8.871-3.98-8.871-8.871c0-4.892,3.98-8.871,8.871-8.871c4.892,0,8.871,3.98,8.871,8.871
	C340.018,313.305,336.039,317.285,331.147,317.285z"/>
<path d="M389.594,333.984c-13.524,0-24.527,11.003-24.527,24.527s11.003,24.527,24.527,24.527s24.527-11.003,24.527-24.527
	S403.118,333.984,389.594,333.984z M389.594,367.383c-4.892,0-8.871-3.98-8.871-8.871s3.98-8.871,8.871-8.871
	s8.871,3.98,8.871,8.871S394.486,367.383,389.594,367.383z"/>
<path d="M356.196,400.781c-13.524,0-24.527,11.003-24.527,24.527c0,13.524,11.003,24.527,24.527,24.527
	c13.524,0,24.527-11.003,24.527-24.527C380.723,411.784,369.72,400.781,356.196,400.781z M356.196,434.18
	c-4.892,0-8.871-3.98-8.871-8.871s3.98-8.871,8.871-8.871c4.892,0,8.871,3.98,8.871,8.871S361.087,434.18,356.196,434.18z"/>
<path d="M197.553,224.396c13.524,0,24.527-11.003,24.527-24.527c0-13.524-11.003-24.527-24.527-24.527
	c-13.524,0-24.527,11.003-24.527,24.527C173.026,213.393,184.029,224.396,197.553,224.396z M197.553,190.997
	c4.892,0,8.871,3.98,8.871,8.871c0,4.892-3.98,8.871-8.871,8.871c-4.892,0-8.871-3.98-8.871-8.871
	C188.682,194.977,192.661,190.997,197.553,190.997z"/>
<path d="M139.106,274.493c13.524,0,24.527-11.003,24.527-24.527c0-13.524-11.003-24.527-24.527-24.527
	c-13.524,0-24.527,11.003-24.527,24.527C114.579,263.491,125.582,274.493,139.106,274.493z M139.106,241.095
	c4.892,0,8.871,3.98,8.871,8.871c0,4.892-3.98,8.871-8.871,8.871c-4.892,0-8.871-3.98-8.871-8.871
	C130.234,245.075,134.214,241.095,139.106,241.095z"/>
<path d="M180.854,283.887c-13.524,0-24.527,11.003-24.527,24.527c0,13.524,11.003,24.527,24.527,24.527
	c13.524,0,24.527-11.003,24.527-24.527C205.381,294.889,194.378,283.887,180.854,283.887z M180.854,317.285
	c-4.892,0-8.871-3.98-8.871-8.871c0-4.892,3.98-8.871,8.871-8.871c4.892,0,8.871,3.98,8.871,8.871
	C189.725,313.305,185.746,317.285,180.854,317.285z"/>
<path d="M146.934,358.511c0-13.524-11.003-24.527-24.527-24.527S97.88,344.987,97.88,358.511s11.003,24.527,24.527,24.527
	S146.934,372.036,146.934,358.511z M122.407,367.383c-4.892,0-8.871-3.98-8.871-8.871s3.98-8.871,8.871-8.871
	s8.871,3.98,8.871,8.871S127.298,367.383,122.407,367.383z"/>
<path d="M155.805,400.781c-13.524,0-24.527,11.003-24.527,24.527c0,13.524,11.003,24.527,24.527,24.527
	c13.524,0,24.527-11.003,24.527-24.527C180.332,411.784,169.329,400.781,155.805,400.781z M155.805,434.18
	c-4.892,0-8.871-3.98-8.871-8.871s3.98-8.871,8.871-8.871c4.892,0,8.871,3.98,8.871,8.871S160.697,434.18,155.805,434.18z"/>
<path d="M475.997,284.447l-39.903-15.961c-7.978-29.419-20.157-58.14-34.659-82.485l25.059-12.53
	c2.651-1.326,4.327-4.036,4.327-7.001v-41.748c0-4.323-3.504-7.828-7.828-7.828s-7.828,3.505-7.828,7.828v36.91L393,172.716
	c-9.116-13.431-18.923-25.064-29.029-34.107c-0.561-22.114-7.713-43.154-20.805-61.006c-2.557-3.486-7.454-4.241-10.941-1.683
	c-3.486,2.556-4.24,7.455-1.682,10.941c10.112,13.794,16.093,29.815,17.502,46.734H163.96c3.986-47.283,43.744-84.54,92.04-84.54
	c14.603,0,28.568,3.306,41.509,9.827c3.859,1.945,8.567,0.393,10.512-3.467s0.393-8.568-3.467-10.513
	c-5.095-2.568-10.328-4.7-15.677-6.411V15.656h25.571c4.324,0,7.828-3.505,7.828-7.828S318.772,0,314.448,0h-33.398
	c-4.324,0-7.828,3.505-7.828,7.828V34.76c-5.643-0.899-11.388-1.362-17.221-1.362c-5.86,0-11.611,0.476-17.221,1.379V7.828
	c0-4.323-3.504-7.828-7.828-7.828h-33.398c-4.324,0-7.828,3.505-7.828,7.828s3.504,7.828,7.828,7.828h25.571V38.52
	c-42.692,13.671-73.914,53.219-75.111,100.107c-10.1,9.039-19.9,20.667-29.011,34.089l-22.166-11.083v-36.91
	c0-4.323-3.504-7.828-7.828-7.828s-7.828,3.505-7.828,7.828v41.748c0,2.965,1.675,5.676,4.327,7.001l25.059,12.53
	c-14.503,24.344-26.681,53.066-34.659,82.485l-39.903,15.961c-2.972,1.189-4.921,4.066-4.921,7.267v41.748
	c0,4.323,3.504,7.828,7.828,7.828s7.828-3.505,7.828-7.828v-36.448l24.705-9.883c-0.6,2.897-1.172,5.795-1.682,8.687
	c-6.189,35.1-5.089,69.214,2.907,99.685L43.76,409.957c-2.651,1.325-4.327,4.036-4.327,7.001v33.398
	c0,4.323,3.504,7.828,7.828,7.828s7.828-3.505,7.828-7.828v-28.561l22.253-11.126c3.669,10.362,8.189,20.213,13.566,29.421
	c22.64,38.769,58.622,64.266,101.316,71.794c4.213,0.74,8.349-2.17,9.074-6.381l2.623-15.244
	c16.525,6.421,34.006,9.674,52.081,9.674c18.075,0,35.557-3.252,52.081-9.674l2.623,15.244c0.726,4.211,4.861,7.122,9.074,6.381
	c42.695-7.528,78.676-33.026,101.316-71.794c5.377-9.208,9.896-19.059,13.566-29.421l22.253,11.126v28.561
	c0,4.323,3.504,7.828,7.828,7.828s7.828-3.505,7.828-7.828v-33.398c0-2.965-1.675-5.676-4.327-7.001l-28.909-14.454
	c7.996-30.471,9.096-64.585,2.907-99.685c-0.51-2.892-1.081-5.789-1.682-8.687l24.705,9.883v36.448c0,4.323,3.504,7.828,7.828,7.828
	c4.324,0,7.828-3.505,7.828-7.828v-41.748C480.918,288.513,478.969,285.635,475.997,284.447z M256,484.277
	c-17.2,0-33.787-3.299-49.364-9.803l7.004-40.707c0.733-4.261-2.127-8.309-6.387-9.043c-4.246-0.73-8.307,2.127-9.042,6.387
	l-10.972,63.769c-76.482-18.099-119.187-99.205-102.06-196.343c10.27-58.239,41.291-120.317,74.297-149.152l87.233-0.122
	l-41.601,241.775c-0.733,4.261,2.127,8.309,6.387,9.043c4.273,0.73,8.308-2.127,9.042-6.387L256,187.585l49.364,286.889
	C289.787,480.977,273.202,484.277,256,484.277z M324.761,494.879l-59.469-345.617l87.233,0.122
	c33.006,28.835,64.027,90.914,74.297,149.152C443.949,395.674,401.244,476.78,324.761,494.879z"/>
<path d="M275.513,69.09c-3.057,3.057-3.057,8.014,0,11.069l0.738,0.738c1.529,1.528,3.533,2.293,5.536,2.293
	c2.003,0,4.007-0.764,5.536-2.293c3.057-3.057,3.057-8.014,0-11.069l-0.738-0.738C283.527,66.033,278.571,66.033,275.513,69.09z"/>
<path d="M225.416,69.09c-3.057,3.057-3.057,8.014,0,11.069l0.738,0.738c1.529,1.528,3.533,2.293,5.536,2.293
	s4.007-0.764,5.536-2.293c3.057-3.057,3.057-8.014,0-11.069l-0.738-0.738C233.429,66.033,228.474,66.033,225.416,69.09z"/>
</svg>
