<?xml version="1.0" standalone="no"?>
<svg version="1.0" xmlns="http://www.w3.org/2000/svg"
 width="1280.000000pt" height="1140.000000pt" viewBox="0 0 1280.000000 1140.000000"
 preserveAspectRatio="xMidYMid meet">
<g transform="translate(0.000000,1140.000000) scale(0.100000,-0.100000)"
fill="#84EB00" stroke="none">
<path d="M12050 11394 c-218 -26 -469 -88 -643 -158 -411 -166 -1074 -586
-1598 -1012 -359 -293 -819 -736 -1280 -1234 -216 -234 -478 -534 -1046 -1197
-370 -431 -558 -643 -616 -692 -45 -39 -85 -71 -88 -71 -4 0 -9 19 -13 41 -11
71 -61 184 -119 272 -60 89 -227 259 -311 314 -111 74 -242 103 -461 103 -143
0 -154 1 -160 19 -8 28 -167 176 -272 255 -48 37 -146 96 -218 131 -272 135
-493 156 -745 70 -59 -20 -76 -23 -85 -13 -345 381 -691 689 -1110 985 -470
333 -1056 622 -1473 727 -417 105 -878 93 -1402 -38 -270 -67 -348 -105 -390
-185 -27 -53 -25 -101 5 -160 85 -169 433 -322 1340 -592 600 -179 1143 -362
2265 -766 223 -80 416 -150 429 -155 l24 -9 -28 -29 c-16 -17 -34 -30 -39 -30
-6 0 -81 30 -166 66 -446 191 -830 305 -1107 329 -85 7 -217 -9 -276 -34 -93
-40 -139 -123 -117 -210 16 -63 41 -100 111 -165 113 -105 273 -184 430 -213
181 -33 590 -18 872 31 42 7 77 12 77 10 0 -2 -24 -38 -53 -81 -29 -43 -62
-94 -74 -114 -15 -26 -33 -40 -60 -49 -65 -21 -185 -89 -256 -147 -170 -137
-301 -374 -314 -569 -11 -156 50 -284 212 -449 76 -78 120 -113 182 -148 228
-126 424 -166 669 -137 l106 12 66 -33 c181 -92 368 -367 360 -532 -2 -50 -6
-61 -18 -58 -8 3 -145 6 -305 7 -224 1 -311 5 -380 18 -187 35 -326 88 -452
172 -98 65 -146 76 -203 47 -46 -24 -80 -76 -80 -124 0 -21 11 -82 24 -136 63
-250 84 -464 96 -953 14 -596 38 -772 170 -1215 28 -93 67 -228 86 -300 38
-144 40 -131 -27 -177 -24 -17 -24 -17 22 -11 40 5 48 3 53 -13 6 -22 93 -471
102 -529 l6 -41 -114 -28 c-62 -16 -117 -31 -122 -34 -4 -2 23 -37 62 -76 105
-108 173 -216 211 -337 22 -73 36 -159 25 -159 -4 0 -35 18 -69 40 -128 83
-232 98 -396 56 -126 -32 -235 -75 -349 -139 -92 -51 -215 -135 -208 -142 2
-2 111 13 243 33 219 33 258 36 436 35 166 -1 209 -4 273 -22 183 -50 206 -25
206 223 0 188 15 377 41 510 10 55 17 101 16 102 -2 2 -29 -4 -61 -12 -43 -11
-61 -12 -66 -4 -4 6 -10 77 -14 158 -3 81 -9 206 -13 278 l-6 131 39 6 c21 4
54 7 72 7 45 0 207 -44 257 -70 86 -44 117 -19 173 140 38 111 76 277 105 463
l14 87 -78 0 -79 0 0 29 c0 64 63 481 91 604 16 73 34 177 39 232 10 108 -2
510 -20 666 -6 50 -9 94 -6 96 2 3 13 0 23 -5 10 -5 48 -17 85 -27 l68 -18 -7
-341 c-28 -1619 248 -3025 768 -3908 137 -234 328 -488 367 -488 39 0 26 38
-46 134 -209 278 -370 590 -509 986 -201 572 -315 1215 -363 2040 -21 350 -12
1179 16 1475 l5 60 117 -17 c64 -9 154 -20 200 -24 61 -5 85 -11 91 -23 15
-28 40 -171 56 -316 27 -251 59 -368 129 -466 22 -32 64 -91 92 -131 28 -40
77 -121 108 -180 l57 -107 -61 -27 c-33 -15 -60 -30 -60 -34 0 -4 30 -45 66
-91 76 -96 224 -316 224 -333 0 -7 -22 -10 -67 -8 -60 4 -73 0 -138 -33 -88
-44 -188 -126 -249 -202 -25 -32 -44 -58 -42 -60 1 -1 73 22 160 53 170 59
256 76 380 78 72 1 80 4 102 29 27 32 27 29 14 192 -9 116 -68 411 -105 522
-3 9 -27 2 -79 -22 l-74 -34 -7 26 c-27 110 -54 277 -60 372 -4 63 -13 138
-21 168 -20 78 -81 194 -172 330 -76 113 -162 258 -162 271 0 4 55 4 122 0 68
-4 182 -7 254 -6 l132 2 71 -95 c501 -661 989 -1034 1501 -1145 120 -26 438
-27 560 -1 408 88 679 219 1305 636 154 102 286 190 293 194 16 11 13 -3 -50
-218 -104 -355 -115 -436 -128 -920 -13 -511 -20 -592 -86 -985 -29 -174 -99
-496 -110 -509 -5 -5 -33 8 -101 48 l-52 31 6 -78 c12 -156 -27 -368 -102
-558 -79 -199 -60 -236 130 -247 110 -7 301 -45 392 -78 32 -12 160 -66 284
-120 125 -55 230 -99 234 -99 15 0 -95 128 -181 210 -90 85 -231 188 -324 235
-120 61 -231 69 -355 25 -32 -11 -63 -19 -67 -18 -4 2 11 35 34 73 50 85 254
293 346 353 l62 40 -92 53 c-51 29 -95 53 -96 55 -2 1 17 72 42 156 59 198
125 464 175 703 22 105 63 294 91 420 127 573 158 822 146 1181 -4 105 -4 236
0 292 l7 100 61 43 c129 90 499 359 685 497 106 79 195 141 198 138 3 -3 -38
-112 -90 -243 -112 -280 -126 -324 -166 -520 -40 -193 -63 -350 -101 -668 -36
-305 -58 -451 -106 -710 -54 -290 -145 -719 -154 -729 -7 -7 -55 0 -120 19
-13 4 -15 -39 -15 -351 l0 -356 25 -20 c21 -17 34 -19 80 -14 30 3 96 9 146
12 106 8 143 -1 375 -91 76 -29 139 -50 139 -45 0 4 -37 43 -82 86 -172 165
-353 253 -463 225 -24 -6 -46 -11 -49 -11 -3 0 10 33 29 73 18 39 49 108 67
152 33 78 35 80 71 83 77 7 243 -27 388 -78 79 -28 147 -49 152 -47 15 5 -68
102 -132 155 -120 100 -229 150 -298 137 -40 -7 -41 -2 -7 39 27 32 231 356
241 382 3 9 -9 20 -41 34 -25 10 -46 23 -46 28 0 18 193 582 281 819 87 235
158 402 247 579 61 121 129 284 178 429 57 164 144 516 175 703 21 129 22 146
9 169 -32 55 -58 65 -196 72 l-129 6 200 154 c110 85 271 210 358 278 155 122
157 125 157 163 0 35 -7 47 -67 107 -356 360 -998 606 -1758 673 -628 55
-1882 -18 -3057 -179 -112 -16 -204 -27 -206 -26 -2 2 34 25 80 53 79 47 98
53 373 121 947 232 1189 279 1790 351 1144 137 1887 286 2399 484 408 158 585
317 548 493 -15 72 -43 115 -99 153 -214 141 -766 107 -1608 -101 -597 -148
-1326 -409 -2079 -745 -104 -47 -190 -83 -191 -82 -1 2 281 172 628 378 683
406 742 437 1460 771 790 368 1256 606 1562 798 261 164 543 387 735 580 154
155 231 255 304 391 168 316 106 682 -139 829 -92 56 -199 82 -350 86 -71 2
-146 1 -165 -1z m318 -160 c200 -52 292 -201 270 -436 -16 -174 -109 -330
-327 -549 -258 -257 -590 -502 -1011 -744 -212 -122 -629 -335 -1200 -612
-289 -141 -606 -296 -705 -345 -157 -79 -688 -392 -2140 -1263 -121 -73 -222
-130 -224 -129 -12 10 647 679 989 1005 711 675 2114 1951 2541 2310 437 368
794 596 1070 683 304 97 564 125 737 80z m-11482 -1454 c229 -19 466 -75 923
-220 526 -167 985 -382 1586 -743 204 -122 668 -426 853 -558 l103 -73 -56
-29 -56 -28 -97 40 c-149 61 -828 318 -1207 458 -544 200 -1002 356 -1410 479
-584 177 -815 255 -1035 351 -122 53 -249 125 -286 164 l-25 27 30 21 c84 60
272 103 527 120 12 0 79 -4 150 -9z m10824 -1320 c83 -14 160 -51 183 -89 80
-136 -108 -273 -513 -376 -273 -69 -584 -119 -1600 -260 -1079 -149 -1409
-218 -2009 -420 -107 -35 -196 -63 -198 -61 -5 5 455 200 742 315 856 342
1408 522 2170 711 455 112 650 151 920 183 67 8 244 6 305 -3z m-8710 -290
c168 -25 390 -70 733 -151 l266 -62 -72 -79 -72 -78 -220 0 c-422 0 -685 42
-840 135 -131 79 -277 207 -257 226 34 33 267 38 462 9z m1928 -15 c203 -42
454 -179 655 -356 l60 -53 -49 -12 c-104 -24 -225 -84 -326 -161 -219 -167
-307 -439 -234 -725 74 -290 244 -496 495 -599 l81 -33 -87 -28 c-179 -59
-401 -197 -597 -373 -40 -36 -80 -65 -89 -65 -9 0 -41 33 -71 73 -60 80 -116
136 -190 192 -55 41 -177 105 -201 105 -31 0 -13 16 33 30 76 22 217 97 285
151 113 91 185 195 222 324 26 88 16 288 -20 410 -42 143 -96 237 -189 330
-129 129 -265 187 -515 219 -145 19 -218 20 -330 5 -45 -6 -84 -9 -86 -7 -3 2
21 36 52 74 305 373 748 574 1101 499z m1292 -462 c70 -19 139 -64 218 -143
166 -168 229 -346 219 -614 -8 -230 -70 -395 -196 -529 -236 -250 -622 -272
-950 -56 -117 77 -185 157 -256 304 -71 144 -88 213 -89 350 -1 156 32 258
123 372 131 166 437 310 706 332 97 8 152 4 225 -16z m-1935 -142 c175 -45
331 -152 398 -275 72 -131 127 -398 108 -523 -31 -200 -214 -349 -525 -428
-114 -29 -301 -49 -375 -40 -210 24 -392 113 -522 253 -163 176 -169 298 -28
573 97 190 220 319 374 395 49 24 119 51 155 59 92 20 309 13 415 -14z m5390
-642 c588 -24 1006 -103 1420 -269 190 -76 448 -226 564 -328 l45 -39 -295
-197 c-286 -193 -328 -219 -317 -200 3 5 13 35 22 67 l17 57 215 144 215 143
-33 25 c-18 13 -67 45 -108 70 -404 244 -941 388 -1675 449 -167 14 -822 18
-927 5 l-67 -8 60 -56 c92 -85 165 -201 225 -359 63 -168 117 -450 130 -683
l6 -115 -173 -195 c-311 -350 -595 -621 -774 -740 -80 -53 -105 -81 -121 -136
-50 -174 148 -307 294 -197 20 15 49 58 78 115 75 149 183 318 307 478 73 95
379 460 385 460 8 0 -8 -186 -28 -330 -27 -183 -69 -333 -137 -487 -2 -7 148
91 335 217 187 127 343 230 347 230 13 0 -3 -122 -17 -135 -20 -20 -502 -338
-668 -442 -362 -226 -573 -334 -790 -407 -193 -64 -263 -77 -445 -83 -239 -7
-383 26 -620 142 -391 191 -790 559 -1306 1205 -185 232 -529 685 -529 697 0
13 122 91 197 125 111 50 181 60 288 41 121 -21 329 -13 439 17 288 78 470
257 532 524 12 49 24 78 34 80 25 8 342 45 565 66 639 61 1549 80 2310 49z
m-4339 -1111 c104 -182 253 -427 340 -557 35 -52 62 -96 61 -98 -2 -1 -57 19
-123 46 -160 65 -357 133 -539 185 l-150 43 3 74 c3 82 20 117 117 246 54 74
183 213 195 213 5 0 48 -69 96 -152z m5558 -13 c-11 -44 -23 -67 -47 -87 -28
-25 -38 -28 -110 -28 -48 0 -77 4 -75 10 3 10 240 171 245 167 1 -2 -5 -30
-13 -62z m-414 -339 c-20 -19 -617 -426 -625 -426 -3 0 -5 28 -3 63 l3 62 230
157 230 157 90 1 c77 0 87 -2 75 -14z m767 -14 c9 -6 9 -21 -3 -67 -36 -143
-92 -312 -155 -476 -78 -202 -113 -318 -169 -561 -22 -95 -52 -216 -65 -268
-44 -166 -359 -1097 -378 -1116 -6 -6 -97 35 -97 44 0 12 68 267 111 417 23
77 92 298 155 490 123 375 204 656 235 818 11 55 31 195 44 311 24 204 34 267
56 369 l11 47 121 0 c67 0 127 -4 134 -8z m-7392 -94 c55 -10 134 -31 175 -44
66 -22 242 -100 293 -130 18 -10 17 -16 -7 -140 -33 -170 -62 -384 -77 -564
-11 -132 -10 -160 9 -315 21 -166 41 -457 42 -602 l0 -73 -74 0 -74 0 19 -62
c38 -124 99 -458 84 -458 -4 0 -19 9 -34 19 -61 44 -176 50 -290 15 -25 -8
-48 -14 -50 -14 -2 0 0 100 5 223 14 348 10 651 -10 807 -21 162 -40 260 -111
570 -73 318 -125 632 -125 761 l0 35 63 -4 c34 -2 107 -13 162 -24z m6430
-2780 c-17 -90 -34 -142 -35 -108 0 24 43 210 48 205 3 -2 -3 -46 -13 -97z"/>
<path d="M6032 7401 c-104 -39 -179 -110 -230 -219 -23 -49 -27 -70 -27 -152
0 -88 3 -101 33 -162 148 -300 563 -299 706 2 28 59 31 74 31 165 0 90 -3 106
-29 160 -38 77 -120 159 -193 192 -79 37 -213 43 -291 14z"/>
<path d="M3740 7324 c-108 -29 -203 -108 -256 -212 -26 -52 -29 -66 -29 -162
0 -93 3 -112 27 -162 35 -75 104 -148 176 -186 325 -173 689 172 533 504 -54
115 -157 197 -279 223 -68 14 -104 13 -172 -5z"/>
<path d="M8032 4801 c-63 -22 -116 -62 -157 -120 -28 -40 -30 -49 -29 -129 1
-133 51 -230 157 -309 129 -95 326 -110 427 -32 l25 19 -61 0 c-115 0 -237 53
-312 134 -51 55 -76 105 -92 179 -11 55 -10 60 14 101 30 51 88 104 151 137
25 13 45 27 45 31 0 15 -116 7 -168 -11z"/>
<path d="M4657 966 c-81 -30 -105 -76 -81 -155 26 -89 112 -161 191 -161 21 0
70 11 108 25 74 26 148 31 204 15 19 -5 37 -8 39 -5 8 8 -102 128 -168 182
-115 95 -214 128 -293 99z"/>
<path d="M5967 649 c-37 -29 -51 -93 -48 -219 l1 -35 20 33 c13 20 38 41 65
53 52 23 79 58 79 104 0 75 -61 109 -117 64z"/>
<path d="M5258 274 c-50 -15 -78 -44 -78 -80 0 -62 117 -128 291 -165 135 -29
448 -32 571 -6 146 30 227 80 214 131 -6 26 -51 56 -82 56 -13 0 -11 -5 10
-25 33 -31 33 -43 -1 -52 -51 -14 -650 -9 -743 6 -89 14 -190 47 -190 61 0 15
46 38 119 60 39 12 71 24 71 26 0 10 -140 1 -182 -12z"/>
</g>
</svg>
