<?xml version="1.0" encoding="iso-8859-1"?>
<!-- Generator: Adobe Illustrator 19.0.0, SVG Export Plug-In . SVG Version: 6.00 Build 0)  -->
<svg version="1.1" id="Layer_1" xmlns="http://www.w3.org/2000/svg" xmlns:xlink="http://www.w3.org/1999/xlink" x="0px" y="0px"
	 viewBox="0 0 512 512" style="enable-background:new 0 0 512 512;" xml:space="preserve" stroke='#84EB00'>
<path d="M135.157,210.663h29.138v-39.302h-29.138c-21.845,0-39.616-17.771-39.616-39.616H56.239
	C56.239,175.259,91.64,210.663,135.157,210.663z"/>
<path d="M20.188,347.262H59.49c0-21.847,17.771-39.618,39.616-39.618h25.887v-39.302H99.106
	C55.591,268.342,20.188,303.744,20.188,347.262z"/>
<path d="M63.166,485.807h39.302c0-21.844,17.771-39.615,39.616-39.615h22.211v-39.302h-22.211
	C98.568,406.889,63.166,442.291,63.166,485.807z"/>
<path d="M310.763,47.308l17.005-25.508L295.067,0l-22.69,34.036c-5.353-0.799-10.819-1.224-16.377-1.224s-11.024,0.423-16.377,1.224
	L216.933,0l-32.701,21.801l17.005,25.508c-36.781,20.812-61.87,61.89-61.87,109.066c0,68.131,52.321,123.56,116.633,123.56
	s116.633-55.43,116.633-123.56C372.633,109.199,347.543,68.12,310.763,47.308z"/>
<path d="M376.843,210.663h-29.138v-39.302h29.138c21.845,0,39.616-17.771,39.616-39.616h39.302
	C455.763,175.259,420.36,210.663,376.843,210.663z"/>
<path d="M491.812,347.262H452.51c0-21.847-17.771-39.618-39.616-39.618h-25.887v-39.302h25.887
	C456.41,268.342,491.812,303.744,491.812,347.262z"/>
<path d="M448.834,485.807h-39.302c0-21.844-17.771-39.615-39.616-39.615h-22.211v-39.302h22.211
	C413.432,406.889,448.834,442.291,448.834,485.807z"/>
<path d="M101.245,404.357C129.19,468.025,188.056,512,256,512s126.81-43.975,154.754-107.643H101.245z"/>
<path style="fill:#FF318F;" d="M256,129.796c-94.87,0-172.052,85.728-172.052,191.102c0,28.931,5.671,56.734,16.858,82.632
	c16.781,38.845,50.951,54.694,82.719,54.694c6.506,0,12.912-0.665,19.047-1.934c19.669-4.066,39.423-14.892,53.428-32.089
	c14.006,17.197,33.76,28.024,53.428,32.089c6.138,1.269,12.539,1.934,19.047,1.934c31.766,0,65.94-15.852,82.719-54.695
	c11.187-25.899,16.858-53.7,16.858-82.631C428.052,215.524,350.87,129.796,256,129.796z"/>
<path style="fill:#BF256B;" d="M256,129.796v294.407c14.006,17.197,33.76,28.024,53.428,32.089
	c6.138,1.269,12.539,1.934,19.047,1.934c31.766,0,65.94-15.852,82.719-54.695c11.187-25.899,16.858-53.7,16.858-82.631
	C428.052,215.524,350.87,129.796,256,129.796z"/>
<circle cx="183.946" cy="344.967" r="19.651"/>
<circle cx="197.047" cy="253.262" r="19.651"/>
<circle cx="314.953" cy="253.262" r="19.651"/>
<circle cx="328.054" cy="344.967" r="19.651"/>
</svg>
