<?xml version="1.0" encoding="iso-8859-1"?>
<!-- Generator: Adobe Illustrator 19.0.0, SVG Export Plug-In . SVG Version: 6.00 Build 0)  -->
<svg version="1.1" id="Layer_1" xmlns="http://www.w3.org/2000/svg" xmlns:xlink="http://www.w3.org/1999/xlink" x="0px" y="0px"
	 viewBox="0 0 511.999 511.999" style="enable-background:new 0 0 511.999 511.999;" xml:space="preserve">
<g>
	<path style="fill:#6B676E;" d="M66.07,280.77c-2.686,0-5.225-1.307-6.782-3.549c-0.597-0.839-15.354-21.225-42.765-21.225
		c-4.565,0-8.258-3.693-8.258-8.258c0-4.565,3.693-8.258,8.258-8.258c21.572,0,37.128,9.62,46.362,17.653
		c3.911-10.951,9.29-26.588,11.693-36.168c2.597-10.419,7.871-17.863,15.653-22.136c9.242-5.072,21.443-5.153,36.257-0.21
		c4.322,1.436,6.661,6.113,5.218,10.443c-1.443,4.323-6.073,6.677-10.443,5.218c-10.128-3.371-18.104-3.702-23.088-0.975
		c-3.637,2-6.113,5.815-7.581,11.661c-4.193,16.782-16.281,49.079-16.79,50.45c-1.081,2.871-3.661,4.911-6.71,5.29
		C66.747,280.747,66.408,280.77,66.07,280.77z"/>
	<path style="fill:#6B676E;" d="M66.07,511.999c-4.565,0-8.258-3.693-8.258-8.258c0-32.346,36.797-48.724,54.692-54.78
		c-7.403-16.621-23.467-52.701-29.217-65.756c-2.299-5.21-2.42-10.741-0.355-15.991c5.516-14.048,25.604-22.726,35.257-26.895
		l2.266-0.992c4.186-1.912,9.064-0.04,10.935,4.097c1.887,4.153,0.057,9.049-4.097,10.935l-2.557,1.121
		c-5.798,2.5-23.426,10.121-26.434,17.774c-0.459,1.17-0.427,2.088,0.097,3.29c7.572,17.193,33.015,74.289,33.015,74.289
		c1,2.242,0.952,4.814-0.137,7.016c-1.081,2.202-3.097,3.807-5.483,4.379c-0.516,0.121-51.466,13.161-51.466,41.515
		C74.328,508.306,70.634,511.999,66.07,511.999z"/>
	<path style="fill:#6B676E;" d="M445.93,280.77c2.686,0,5.226-1.307,6.782-3.549c0.597-0.839,15.354-21.225,42.765-21.225
		c4.565,0,8.258-3.693,8.258-8.258c0-4.565-3.693-8.258-8.258-8.258c-21.572,0-37.128,9.62-46.362,17.653
		c-3.911-10.951-9.29-26.588-11.693-36.168c-2.597-10.419-7.871-17.863-15.653-22.136c-9.242-5.072-21.443-5.153-36.257-0.21
		c-4.323,1.436-6.661,6.113-5.218,10.443c1.443,4.323,6.073,6.677,10.443,5.218c10.129-3.371,18.104-3.702,23.088-0.975
		c3.637,2,6.113,5.815,7.581,11.661c4.194,16.782,16.281,49.079,16.79,50.45c1.081,2.871,3.661,4.911,6.71,5.29
		C445.253,280.747,445.591,280.77,445.93,280.77z"/>
	<path style="fill:#6B676E;" d="M445.93,511.999c4.565,0,8.258-3.693,8.258-8.258c0-32.346-36.797-48.724-54.692-54.78
		c7.403-16.621,23.467-52.701,29.217-65.756c2.299-5.21,2.42-10.741,0.355-15.991c-5.516-14.048-25.604-22.726-35.257-26.895
		l-2.266-0.992c-4.186-1.912-9.064-0.04-10.935,4.097c-1.887,4.153-0.057,9.049,4.097,10.935l2.557,1.121
		c5.798,2.5,23.426,10.121,26.434,17.774c0.459,1.17,0.427,2.088-0.097,3.29c-7.572,17.193-33.015,74.289-33.015,74.289
		c-1,2.242-0.952,4.814,0.137,7.016c1.081,2.202,3.097,3.807,5.484,4.379c0.516,0.121,51.466,13.161,51.466,41.515
		C437.672,508.306,441.365,511.999,445.93,511.999z"/>
</g>
<g>
	<path style="fill:#CFCAC4;" d="M231.227,57.808c-0.662,0-1.331-0.081-2-0.25c-13.588-3.395-39.289-18.072-39.289-49.297
		c0-4.565,3.693-8.258,8.258-8.258s8.258,3.693,8.258,8.258c0,26.007,25.717,32.999,26.814,33.289
		c4.395,1.145,7.065,5.629,5.944,10.032C238.258,55.317,234.912,57.808,231.227,57.808z"/>
	<path style="fill:#CFCAC4;" d="M280.774,57.808c0.662,0,1.331-0.081,2-0.25c13.588-3.395,39.289-18.072,39.289-49.297
		c0-4.565-3.693-8.258-8.258-8.258c-4.565,0-8.258,3.693-8.258,8.258c0,26.007-25.717,32.999-26.814,33.289
		c-4.395,1.145-7.065,5.629-5.944,10.032C273.741,55.317,277.088,57.808,280.774,57.808z"/>
</g>
<ellipse style="fill:#464655;" cx="256.003" cy="66.062" rx="49.547" ry="33.031"/>
<ellipse style="fill:#FF695F;" cx="256.003" cy="289.024" rx="156.899" ry="198.188"/>
<g>
	<circle style="fill:#F0EBE1;" cx="222.972" cy="148.641" r="16.516"/>
	<circle style="fill:#F0EBE1;" cx="289.035" cy="148.641" r="16.516"/>
</g>
<path style="fill:#FF8C78;" d="M247.742,132.13v354.811c2.735,0.18,5.487,0.277,8.258,0.277s5.522-0.097,8.258-0.277V132.13H247.742
	z"/>
<g>
	<circle style="fill:#464655;" cx="189.94" cy="297.282" r="24.774"/>
	<path style="fill:#464655;" d="M148.648,388.122c-9.526,0-17.701,5.439-21.846,13.324c7.221,13.218,15.681,25.263,25.168,35.889
		c12.095-1.638,21.452-11.894,21.452-24.439C173.422,399.214,162.329,388.122,148.648,388.122z"/>
	<path style="fill:#464655;" d="M115.617,264.256c9.121,0,16.516-7.395,16.516-16.516c0-9.122-7.395-16.516-16.516-16.516
		c-4.06,0-7.728,1.521-10.604,3.951c-1.509,6.764-2.746,13.669-3.684,20.706C104.172,260.86,109.472,264.256,115.617,264.256z"/>
	<circle style="fill:#464655;" cx="256.003" cy="165.156" r="24.774"/>
	<circle style="fill:#464655;" cx="322.066" cy="297.282" r="24.774"/>
	<path style="fill:#464655;" d="M363.351,388.122c9.526,0,17.701,5.439,21.846,13.324c-7.221,13.218-15.681,25.263-25.168,35.889
		c-12.095-1.638-21.452-11.894-21.452-24.439C338.578,399.214,349.67,388.122,363.351,388.122z"/>
	<path style="fill:#464655;" d="M396.383,264.256c-9.121,0-16.516-7.395-16.516-16.516c0-9.122,7.395-16.516,16.516-16.516
		c4.06,0,7.728,1.521,10.604,3.951c1.509,6.764,2.746,13.669,3.684,20.706C407.827,260.86,402.528,264.256,396.383,264.256z"/>
</g>
<path style="fill:#6B676E;" d="M453.477,4.916c-1.838-4.153-6.71-6.064-10.895-4.201c-36.644,16.234-66.765,0.452-67.063,0.275
	c-2.54-1.363-5.654-1.314-8.145,0.186c-2.5,1.492-4.024,4.186-4.024,7.088v66.063c0,9.231-8.448,17.149-17.302,23.069
	c-16.099-30.62-29.181-39.585-90.05-39.585c-60.87,0-73.952,8.966-90.051,39.587c-8.855-5.921-17.303-13.838-17.303-23.071V8.263
	c0-2.904-1.525-5.597-4.024-7.088c-2.492-1.5-5.605-1.548-8.145-0.186c-0.298,0.178-30.419,15.959-67.063-0.275
	c-4.186-1.863-9.056,0.049-10.895,4.201c-1.847,4.169,0.032,9.049,4.201,10.895c29.217,12.96,54.975,8.927,69.409,4.524v53.991
	c0,17.335,13.7,29.774,26.395,37.95c-0.532,1.094-1.068,2.204-1.62,3.339c-3.714,7.659,6.554,15.441,18.133,21.306
	c23.156,11.725,72.703,11.725,80.961,11.725c8.258,0,57.805,0,80.961-11.725c11.58-5.865,21.847-13.647,18.133-21.306
	c-0.551-1.135-1.089-2.245-1.62-3.34c12.694-8.176,26.393-20.614,26.393-37.949V20.334c14.435,4.403,40.192,8.435,69.409-4.524
	C453.445,13.963,455.324,9.085,453.477,4.916z"/>
<g>
	<path style="fill:#F0EBE1;" d="M174.924,82.537c3.399,9.625,12.483,16.562,23.271,16.562c13.682,0,24.774-11.091,24.774-24.774
		c0-5.445-1.81-10.437-4.787-14.526C195.825,62.81,184.301,69.627,174.924,82.537z"/>
	<path style="fill:#F0EBE1;" d="M293.818,59.799c-2.978,4.089-4.788,9.081-4.788,14.526c0,13.682,11.091,24.774,24.774,24.774
		c10.788,0,19.871-6.938,23.271-16.562C327.698,69.627,316.174,62.81,293.818,59.799z"/>
</g>
</svg>
