<?xml version="1.0" encoding="iso-8859-1"?>
<!-- Generator: Adobe Illustrator 19.0.0, SVG Export Plug-In . SVG Version: 6.00 Build 0)  -->
<svg version="1.1" id="Layer_1" xmlns="http://www.w3.org/2000/svg" xmlns:xlink="http://www.w3.org/1999/xlink" x="0px" y="0px"
	 viewBox="0 0 512 512" style="enable-background:new 0 0 512 512;" xml:space="preserve">
<g>
	<path style="fill:#754F1E;" d="M389.464,191.846c-3.06,0-6.006-1.69-7.466-4.613c-2.06-4.12-0.39-9.13,3.729-11.191l28.754-14.377
		v-36.55c0-4.606,3.735-8.341,8.341-8.341s8.341,3.735,8.341,8.341v41.705c0,3.159-1.785,6.047-4.611,7.46l-33.364,16.682
		C391.99,191.562,390.717,191.846,389.464,191.846z"/>
	<path style="fill:#754F1E;" d="M472.868,341.983c-4.606,0-8.341-3.735-8.341-8.341v-36.057l-36.462-14.585
		c-4.278-1.711-6.358-6.564-4.647-10.842c1.711-4.277,6.564-6.358,10.841-4.647l41.705,16.682c3.168,1.267,5.243,4.334,5.243,7.745
		v41.705C481.209,338.249,477.474,341.983,472.868,341.983z"/>
	<path style="fill:#754F1E;" d="M464.527,458.758c-4.606,0-8.341-3.735-8.341-8.341v-28.209l-28.754-14.377
		c-4.119-2.06-5.79-7.07-3.729-11.191c2.06-4.122,7.069-5.79,11.191-3.731l33.364,16.682c2.826,1.413,4.611,4.301,4.611,7.46v33.364
		C472.868,455.023,469.133,458.758,464.527,458.758z"/>
	<path style="fill:#754F1E;" d="M122.537,191.846c-1.254,0-2.526-0.284-3.724-0.883l-33.364-16.682
		c-2.826-1.413-4.611-4.301-4.611-7.46v-41.705c0-4.606,3.735-8.341,8.341-8.341s8.341,3.735,8.341,8.341v36.55l28.754,14.377
		c4.119,2.06,5.79,7.07,3.729,11.191C128.543,190.156,125.596,191.845,122.537,191.846z"/>
	<path style="fill:#754F1E;" d="M39.133,341.983c-4.606,0-8.341-3.735-8.341-8.341v-41.705c0-3.41,2.076-6.478,5.243-7.745
		l41.705-16.682c4.279-1.711,9.131,0.37,10.841,4.647c1.711,4.278-0.369,9.131-4.647,10.842l-36.462,14.585v36.057
		C47.474,338.249,43.739,341.983,39.133,341.983z"/>
	<path style="fill:#754F1E;" d="M47.474,458.758c-4.606,0-8.341-3.735-8.341-8.341v-33.364c0-3.159,1.785-6.047,4.611-7.46
		l33.364-16.682c4.119-2.061,9.131-0.39,11.191,3.731s0.39,9.13-3.729,11.191l-28.754,14.377v28.208
		C55.815,455.023,52.081,458.758,47.474,458.758z"/>
</g>
<path style="fill:#F9C900;" d="M361.253,136.734c-1.486-1.748-3.665-2.756-5.959-2.756H156.706c-2.294,0-4.473,1.007-5.959,2.756
	c-31.032,36.514-52.705,107.195-52.705,171.885c0,54.295,16.275,103.399,45.829,138.268c28.998,34.213,68.82,53.055,112.13,53.055
	s83.131-18.842,112.13-53.055c29.553-34.868,45.829-83.973,45.829-138.268C413.959,243.929,392.286,173.248,361.253,136.734z"/>
<path style="fill:#F9AA0C;" d="M361.253,136.734c-1.486-1.748-3.665-2.756-5.959-2.756H156.706c-2.294,0-4.473,1.007-5.959,2.756
	c-31.032,36.514-52.705,107.195-52.705,171.885c0,54.295,16.275,103.399,45.829,138.268c13.077,15.428,28.359,27.717,45.164,36.577
	c-10.328-13.886-16.444-31.091-16.444-49.727c0-46.067,37.344-83.411,83.411-83.411s83.411,37.344,83.411,83.411
	c0,18.636-6.116,35.842-16.444,49.727c16.805-8.858,32.087-21.149,45.164-36.577c29.553-34.868,45.829-83.973,45.829-138.268
	C413.959,243.929,392.286,173.248,361.253,136.734z"/>
<path style="fill:#DE90C7;" d="M69.952,296.037c11.233-63.708,44.852-129.551,81.753-160.121c1.399-1.159,3.159-1.795,4.976-1.799
	l99.307-0.139c0.004,0,0.007,0,0.011,0c2.303,0,4.491,1.017,5.976,2.777c1.488,1.764,2.121,4.094,1.73,6.369l-62.353,362.382
	c-0.353,2.049-1.507,3.873-3.208,5.07c-1.325,0.933-2.899,1.423-4.498,1.423c-0.453,0-0.906-0.04-1.359-0.119
	c-42.651-7.521-78.596-32.992-101.212-71.721C68.027,400.691,60.524,349.506,69.952,296.037z"/>
<path style="fill:#C971C2;" d="M183.242,135.914c1.399-1.159,3.159-1.795,4.976-1.799h-31.536c-1.817,0.002-3.578,0.638-4.976,1.799
	c-36.902,30.57-70.519,96.414-81.753,160.121c-9.429,53.47-1.927,104.654,21.123,144.125c22.617,38.73,58.562,64.2,101.212,71.721
	c0.452,0.079,0.906,0.119,1.359,0.119c1.599,0,3.173-0.491,4.498-1.423c1.56-1.097,2.651-2.724,3.096-4.567
	c-32.709-11.37-60.13-34.171-78.629-65.85c-23.048-39.47-30.551-90.655-21.123-144.125
	C112.722,232.329,146.34,166.484,183.242,135.914z"/>
<g>
	<path style="fill:#F5E038;" d="M173.111,200.185c0-13.51,10.991-24.502,24.502-24.502s24.502,10.991,24.502,24.502
		s-10.991,24.502-24.502,24.502S173.111,213.696,173.111,200.185z"/>
	<path style="fill:#F5E038;" d="M139.226,274.733c-13.51,0-24.502-10.991-24.502-24.502s10.991-24.502,24.502-24.502
		s24.502,10.991,24.502,24.502S152.736,274.733,139.226,274.733z"/>
	<path style="fill:#F5E038;" d="M156.429,308.619c0-13.51,10.991-24.502,24.502-24.502c13.51,0,24.502,10.991,24.502,24.502
		c0,13.51-10.991,24.502-24.502,24.502C167.421,333.121,156.429,322.129,156.429,308.619z"/>
	<path style="fill:#F5E038;" d="M122.544,334.164c13.51,0,24.502,10.991,24.502,24.502c0,13.51-10.991,24.502-24.502,24.502
		s-24.502-10.991-24.502-24.502C98.042,345.155,109.033,334.164,122.544,334.164z"/>
	<path style="fill:#F5E038;" d="M155.908,400.892c13.51,0,24.502,10.991,24.502,24.502s-10.991,24.502-24.502,24.502
		c-13.51,0-24.502-10.991-24.502-24.502S142.397,400.892,155.908,400.892z"/>
</g>
<path style="fill:#DE90C7;" d="M442.048,296.037c-11.233-63.708-44.852-129.551-81.753-160.121
	c-1.399-1.159-3.159-1.795-4.976-1.799l-99.307-0.139c-0.004,0-0.007,0-0.011,0c-2.303,0-4.491,1.017-5.976,2.777
	c-1.488,1.764-2.121,4.094-1.73,6.369l62.355,362.382c0.353,2.049,1.507,3.873,3.208,5.07c1.325,0.933,2.899,1.423,4.498,1.423
	c0.452,0,0.906-0.04,1.359-0.119c42.651-7.521,78.596-32.992,101.212-71.721C443.975,400.691,451.476,349.506,442.048,296.037z"/>
<path style="fill:#C971C2;" d="M328.759,135.914c-1.399-1.159-3.159-1.795-4.976-1.799h31.536c1.817,0.002,3.578,0.638,4.976,1.799
	c36.902,30.57,70.519,96.414,81.753,160.121c9.429,53.47,1.927,104.654-21.123,144.125c-22.617,38.73-58.561,64.2-101.212,71.721
	c-0.452,0.079-0.906,0.119-1.359,0.119c-1.599,0-3.173-0.491-4.498-1.423c-1.56-1.097-2.651-2.724-3.096-4.567
	c32.709-11.37,60.13-34.171,78.629-65.85c23.048-39.47,30.551-90.655,21.123-144.125
	C399.278,232.329,365.66,166.484,328.759,135.914z"/>
<g>
	<path style="fill:#F5E038;" d="M338.89,200.185c0-13.51-10.991-24.502-24.502-24.502s-24.502,10.991-24.502,24.502
		s10.991,24.502,24.502,24.502S338.89,213.696,338.89,200.185z"/>
	<path style="fill:#F5E038;" d="M372.775,274.733c13.51,0,24.502-10.991,24.502-24.502s-10.991-24.502-24.502-24.502
		s-24.502,10.991-24.502,24.502S359.265,274.733,372.775,274.733z"/>
	<path style="fill:#F5E038;" d="M355.572,308.619c0-13.51-10.991-24.502-24.502-24.502c-13.51,0-24.502,10.991-24.502,24.502
		c0,13.51,10.991,24.502,24.502,24.502C344.58,333.121,355.572,322.129,355.572,308.619z"/>
	<path style="fill:#F5E038;" d="M389.457,334.164c-13.51,0-24.502,10.991-24.502,24.502c0,13.51,10.991,24.502,24.502,24.502
		s24.502-10.991,24.502-24.502C413.959,345.155,402.968,334.164,389.457,334.164z"/>
	<path style="fill:#F5E038;" d="M356.093,400.892c-13.51,0-24.502,10.991-24.502,24.502s10.991,24.502,24.502,24.502
		c13.51,0,24.502-10.991,24.502-24.502S369.604,400.892,356.093,400.892z"/>
</g>
<g>
	<path style="fill:#754F1E;" d="M281.024,50.046c-4.606,0-8.341-3.735-8.341-8.341V8.341c0-4.606,3.735-8.341,8.341-8.341h33.364
		c4.606,0,8.341,3.735,8.341,8.341s-3.735,8.341-8.341,8.341h-25.023v25.023C289.365,46.312,285.63,50.046,281.024,50.046z"/>
	<path style="fill:#754F1E;" d="M230.977,50.046c-4.606,0-8.341-3.735-8.341-8.341V16.682h-25.023c-4.606,0-8.341-3.735-8.341-8.341
		S193.007,0,197.613,0h33.364c4.606,0,8.341,3.735,8.341,8.341v33.364C239.318,46.312,235.584,50.046,230.977,50.046z"/>
</g>
<path style="fill:#F36280;" d="M256.001,33.364c-56.828,0-103.446,43.715-108.058,99.353c-0.405,4.882,3.417,9.08,8.315,9.08
	h199.488c4.898,0,8.72-4.2,8.315-9.08C359.446,77.08,312.828,33.364,256.001,33.364z"/>
<path style="fill:#E05161;" d="M272.489,34.616c-5.378-0.821-10.882-1.252-16.488-1.252c-56.828,0-103.446,43.715-108.059,99.353
	c-0.405,4.882,3.418,9.08,8.315,9.08h24.329C180.585,87.532,220.448,42.577,272.489,34.616z"/>
<g>
	<path style="fill:#754F1E;" d="M281.761,84.148c-2.135,0-4.27-0.814-5.898-2.443l-0.737-0.737c-3.257-3.257-3.257-8.538,0-11.795
		c3.258-3.257,8.538-3.257,11.796,0l0.737,0.737c3.257,3.257,3.257,8.538,0,11.795C286.029,83.333,283.896,84.148,281.761,84.148z"
		/>
	<path style="fill:#754F1E;" d="M231.715,84.148c-2.135,0-4.27-0.814-5.898-2.443l-0.737-0.737c-3.257-3.257-3.257-8.538,0-11.795
		c3.258-3.257,8.538-3.257,11.796,0l0.737,0.737c3.257,3.257,3.257,8.538,0,11.795C235.983,83.333,233.85,84.148,231.715,84.148z"/>
</g>
<g>
</g>
<g>
</g>
<g>
</g>
<g>
</g>
<g>
</g>
<g>
</g>
<g>
</g>
<g>
</g>
<g>
</g>
<g>
</g>
<g>
</g>
<g>
</g>
<g>
</g>
<g>
</g>
<g>
</g>
</svg>
