<?xml version="1.0" encoding="iso-8859-1"?>
<!-- Generator: Adobe Illustrator 19.0.0, SVG Export Plug-In . SVG Version: 6.00 Build 0)  -->
<svg version="1.1" id="Layer_1" xmlns="http://www.w3.org/2000/svg" xmlns:xlink="http://www.w3.org/1999/xlink" x="0px" y="0px"
	 viewBox="0 0 496 496" style="enable-background:new 0 0 496 496;" xml:space="preserve">
<ellipse style="fill:#1E4784;" cx="248" cy="150.4" rx="91.2" ry="89.6"/>
<path style="fill:#00233F;" d="M248,60.8c50.4,0,91.2,40,91.2,89.6S298.4,240,248,240"/>
<ellipse style="fill:#1E4784;" cx="248" cy="322.4" rx="137.6" ry="173.6"/>
<path style="fill:#00233F;" d="M248,148.8c76,0,137.6,77.6,137.6,173.6S324,496,248,496"/>
<path style="fill:#EF256E;" d="M245.6,150.4C157.6,136,72,192,50.4,280.8c-21.6,88,29.6,176.8,114.4,204.8L245.6,150.4z"/>
<path style="fill:#D11550;" d="M51.2,280.8c-21.6,88,29.6,176.8,114.4,204.8l80.8-334.4"/>
<g>
	<circle style="fill:#F9E0B4;" cx="120" cy="376" r="25.6"/>
	<circle style="fill:#F9E0B4;" cx="88" cy="324" r="10.4"/>
	<circle style="fill:#F9E0B4;" cx="95.2" cy="262.4" r="20"/>
	<circle style="fill:#F9E0B4;" cx="128.8" cy="295.2" r="2.4"/>
	<circle style="fill:#F9E0B4;" cx="164" cy="222.4" r="28"/>
	<circle style="fill:#F9E0B4;" cx="168.8" cy="301.6" r="11.2"/>
	<circle style="fill:#F9E0B4;" cx="127.2" cy="322.4" r="3.2"/>
	<circle style="fill:#F9E0B4;" cx="108.8" cy="216.8" r="6.4"/>
	<circle style="fill:#F9E0B4;" cx="209.6" cy="176" r="12"/>
	<circle style="fill:#F9E0B4;" cx="160" cy="172" r="4.8"/>
	<circle style="fill:#F9E0B4;" cx="210.4" cy="210.4" r="6.4"/>
	<circle style="fill:#F9E0B4;" cx="144" cy="428" r="5.6"/>
	<circle style="fill:#F9E0B4;" cx="168.8" cy="344.8" r="6.4"/>
	<circle style="fill:#F9E0B4;" cx="152" cy="272.8" r="6.4"/>
</g>
<path style="fill:#EF256E;" d="M250.4,150.4C338.4,136,424,192,445.6,280.8c21.6,88-29.6,176.8-114.4,204.8L250.4,150.4z"/>
<path style="fill:#D11550;" d="M444.8,280.8c21.6,88-29.6,176.8-114.4,204.8l-80-335.2"/>
<g>
	<circle style="fill:#F9E0B4;" cx="376" cy="376" r="25.6"/>
	<circle style="fill:#F9E0B4;" cx="408" cy="324" r="10.4"/>
	<circle style="fill:#F9E0B4;" cx="400.8" cy="262.4" r="20"/>
	<circle style="fill:#F9E0B4;" cx="367.2" cy="295.2" r="2.4"/>
	<circle style="fill:#F9E0B4;" cx="332" cy="222.4" r="28"/>
	<circle style="fill:#F9E0B4;" cx="327.2" cy="301.6" r="11.2"/>
	<circle style="fill:#F9E0B4;" cx="368.8" cy="322.4" r="3.2"/>
	<circle style="fill:#F9E0B4;" cx="387.2" cy="216.8" r="6.4"/>
	<circle style="fill:#F9E0B4;" cx="286.4" cy="176" r="12"/>
	<circle style="fill:#F9E0B4;" cx="336" cy="172" r="4.8"/>
	<circle style="fill:#F9E0B4;" cx="285.6" cy="210.4" r="6.4"/>
	<circle style="fill:#F9E0B4;" cx="352" cy="428" r="5.6"/>
	<circle style="fill:#F9E0B4;" cx="327.2" cy="344.8" r="6.4"/>
	<circle style="fill:#F9E0B4;" cx="344" cy="272.8" r="6.4"/>
</g>
<g>
	<path style="fill:#1E4784;" d="M207.2,83.2c2.4,4.8,1.6,10.4-3.2,12.8l0,0c-4.8,2.4-10.4,1.6-12.8-3.2l-29.6-49.6
		c-2.4-4.8-1.6-10.4,3.2-12.8l0,0c4.8-2.4,10.4-1.6,12.8,3.2L207.2,83.2z"/>
	<circle style="fill:#1E4784;" cx="160" cy="22.4" r="22.4"/>
</g>
<g>
	<path style="fill:#00233F;" d="M288.8,83.2c-2.4,4.8-1.6,10.4,3.2,12.8l0,0c4.8,2.4,10.4,1.6,12.8-3.2l29.6-49.6
		c2.4-4.8,1.6-10.4-3.2-12.8l0,0c-4.8-2.4-10.4-1.6-12.8,3.2L288.8,83.2z"/>
	<circle style="fill:#00233F;" cx="336" cy="22.4" r="22.4"/>
</g>
</svg>
