<?xml version="1.0" encoding="iso-8859-1"?>
<!-- Generator: Adobe Illustrator 19.0.0, SVG Export Plug-In . SVG Version: 6.00 Build 0)  -->
<svg version="1.1" id="Layer_1" xmlns="http://www.w3.org/2000/svg" xmlns:xlink="http://www.w3.org/1999/xlink" x="0px" y="0px"
	 viewBox="0 0 512 512" style="enable-background:new 0 0 512 512;" xml:space="preserve">
<polygon style="fill:#D0FBFD;" points="449.362,8.17 449.362,438.468 394.894,460.255 416.681,8.17 "/>
<polygon style="fill:#F0FEFF;" points="62.638,8.17 62.638,503.83 384,503.83 416.681,449.362 416.681,8.17 "/>
<g>
	<polygon style="fill:#50D1DD;" points="384,438.468 384,503.83 449.362,438.468 	"/>
	<circle style="fill:#50D1DD;" cx="182.468" cy="133.991" r="8.17"/>
	<circle style="fill:#50D1DD;" cx="215.149" cy="133.991" r="8.17"/>
	<circle style="fill:#50D1DD;" cx="247.83" cy="133.991" r="8.17"/>
</g>
<path d="M449.362,0H62.638c-4.513,0-8.17,3.658-8.17,8.17v495.66c0,4.512,3.657,8.17,8.17,8.17H384c2.167,0,4.244-0.861,5.778-2.393
	l65.362-65.362c1.532-1.532,2.392-3.61,2.392-5.777V8.17C457.532,3.658,453.875,0,449.362,0z M70.809,16.34h370.383v413.957H384
	c-4.513,0-8.17,3.658-8.17,8.17v57.191H70.809V16.34z M429.638,446.638l-37.468,37.468v-37.468H429.638z"/>
<path d="M215.149,430.298h-54.468c-4.513,0-8.17,3.658-8.17,8.17c0,4.512,3.657,8.17,8.17,8.17h54.468c4.513,0,8.17-3.658,8.17-8.17
	C223.319,433.956,219.662,430.298,215.149,430.298z"/>
<path d="M215.149,397.617h-54.468c-4.513,0-8.17,3.658-8.17,8.17c0,4.512,3.657,8.17,8.17,8.17h54.468c4.513,0,8.17-3.658,8.17-8.17
	C223.319,401.275,219.662,397.617,215.149,397.617z"/>
<path d="M302.298,364.936H160.681c-4.513,0-8.17,3.658-8.17,8.17c0,4.512,3.657,8.17,8.17,8.17h141.617
	c4.513,0,8.17-3.658,8.17-8.17C310.468,368.594,306.811,364.936,302.298,364.936z"/>
<path d="M384,332.255H193.362c-4.513,0-8.17,3.658-8.17,8.17c0,4.512,3.657,8.17,8.17,8.17H384c4.513,0,8.17-3.658,8.17-8.17
	C392.17,335.913,388.513,332.255,384,332.255z"/>
<path d="M384,299.574H226.043c-4.513,0-8.17,3.658-8.17,8.17c0,4.512,3.657,8.17,8.17,8.17H384c4.513,0,8.17-3.658,8.17-8.17
	C392.17,303.233,388.513,299.574,384,299.574z"/>
<path d="M250.553,275.064c0,4.512,3.657,8.17,8.17,8.17H384c4.513,0,8.17-3.658,8.17-8.17c0-4.512-3.657-8.17-8.17-8.17H258.723
	C254.21,266.894,250.553,270.552,250.553,275.064z"/>
<path d="M193.362,283.234h32.681c4.513,0,8.17-3.658,8.17-8.17c0-4.512-3.657-8.17-8.17-8.17h-32.681c-4.513,0-8.17,3.658-8.17,8.17
	C185.191,279.576,188.848,283.234,193.362,283.234z"/>
<path d="M152.511,242.383c0,4.512,3.657,8.17,8.17,8.17h141.617c4.513,0,8.17-3.658,8.17-8.17c0-4.512-3.657-8.17-8.17-8.17H160.681
	C156.168,234.213,152.511,237.871,152.511,242.383z"/>
<path d="M158.253,194.451c0-4.512-3.657-8.17-8.17-8.17c-4.506,0-8.17-3.665-8.17-8.135l0.136-31.626
	c0-4.467-1.215-8.78-3.454-12.528c2.24-3.747,3.454-8.059,3.454-12.528V89.872c0-4.506,3.665-8.17,8.17-8.17
	c4.513,0,8.17-3.658,8.17-8.17c0-4.512-3.657-8.17-8.17-8.17c-13.515,0-24.511,10.995-24.511,24.511v31.591
	c0,2.41-1.076,4.692-2.952,6.263c-1.855,1.551-2.926,3.845-2.926,6.265s1.071,4.714,2.926,6.265
	c1.877,1.571,2.953,3.854,2.953,6.228l-0.136,31.626c0,13.516,10.996,24.511,24.511,24.511
	C154.596,202.621,158.253,198.963,158.253,194.451z"/>
<path d="M280.079,81.702c4.506,0,8.17,3.665,8.17,8.17v31.591c0,4.467,1.216,8.78,3.455,12.529
	c-2.24,3.751-3.455,8.072-3.455,12.561l0.136,31.557c0,4.506-3.665,8.17-8.17,8.17c-4.513,0-8.17,3.658-8.17,8.17
	c0,4.512,3.657,8.17,8.17,8.17c13.515,0,24.511-10.995,24.511-24.546l-0.136-31.557c0-2.409,1.076-4.692,2.953-6.263
	c1.854-1.552,2.925-3.847,2.925-6.265s-1.071-4.713-2.926-6.265c-1.877-1.571-2.953-3.854-2.953-6.263V89.872
	c0-13.516-10.996-24.511-24.511-24.511c-4.513,0-8.17,3.658-8.17,8.17C271.908,78.044,275.566,81.702,280.079,81.702z"/>
<path d="M128,234.213c-4.513,0-8.17,3.658-8.17,8.17v196.085c0,4.512,3.657,8.17,8.17,8.17s8.17-3.658,8.17-8.17V242.383
	C136.17,237.871,132.513,234.213,128,234.213z"/>
</svg>
