<?xml version="1.0" encoding="iso-8859-1"?>
<!-- Generator: Adobe Illustrator 19.0.0, SVG Export Plug-In . SVG Version: 6.00 Build 0)  -->
<svg version="1.1" id="Layer_1" xmlns="http://www.w3.org/2000/svg" xmlns:xlink="http://www.w3.org/1999/xlink" x="0px" y="0px"
	 viewBox="0 0 512 512" style="enable-background:new 0 0 512 512;" xml:space="preserve">
<polygon style="fill:#FFFFFF;" points="319.745,10.199 55.076,10.199 55.076,501.801 407.968,501.801 407.968,98.422 "/>
<rect x="166.247" y="311.28" style="fill:#6A5CAF;" width="290.677" height="137.342"/>
<path d="M94.99,378.332c-5.632,0-10.199,4.566-10.199,10.199v73.191c0,5.633,4.567,10.199,10.199,10.199
	c5.632,0,10.199-4.566,10.199-10.199v-73.191C105.189,382.898,100.622,378.332,94.99,378.332z"/>
<path d="M94.99,334.741c-5.632,0-10.199,4.566-10.199,10.199v6.02c0,5.633,4.567,10.199,10.199,10.199
	c5.632,0,10.199-4.566,10.199-10.199v-6.02C105.189,339.307,100.622,334.741,94.99,334.741z"/>
<path d="M456.924,301.077h-38.757V98.422c0-2.705-1.075-5.3-2.987-7.212L326.957,2.987C325.044,1.075,322.45,0,319.745,0H55.076
	c-5.632,0-10.199,4.566-10.199,10.199v491.602c0,5.633,4.567,10.199,10.199,10.199h352.892c5.632,0,10.199-4.566,10.199-10.199
	v-42.987h38.757c5.632,0,10.199-4.566,10.199-10.199V311.277C467.124,305.644,462.556,301.077,456.924,301.077z M329.944,34.823
	l53.401,53.4h-53.401V34.823z M397.769,491.602H65.275V20.398h244.271v78.024c0,5.633,4.567,10.199,10.199,10.199h78.024v192.456
	H166.247c-5.632,0-10.199,4.566-10.199,10.199v137.338c0,5.633,4.567,10.199,10.199,10.199h231.522V491.602z M446.725,438.416
	H176.446v-116.94h270.279V438.416z"/>
<g>
	<path style="fill:#FFFFFF;" d="M254.303,422.991c16.021,0,27.35-8.811,27.35-22.658c0-5.836-2.404-7.324-7.554-7.324
		c-3.89,0-7.094,1.144-7.323,4.692c-0.344,4.806-1.259,12.244-11.672,12.244c-7.895,0-12.244-4.234-12.244-13.16v-31.927
		c0-8.925,4.349-13.16,12.015-13.16c10.871,0,11.672,7.781,11.901,11.328c0.113,3.433,3.204,4.692,7.438,4.692
		c5.034,0,7.438-1.373,7.438-7.324c0-13.274-11.329-21.742-27.235-21.742c-14.42,0-26.434,7.095-26.434,26.205v31.927
		C227.984,415.895,239.884,422.991,254.303,422.991z"/>
	<path style="fill:#FFFFFF;" d="M313.576,409.945c-11.673,0-14.763-8.812-19.454-8.812c-3.548,0-6.522,4.806-6.522,8.01
		c0,6.637,11.442,14.19,26.433,14.19c15.791,0,27.235-8.468,27.235-24.832c0-29.639-36.733-24.718-36.733-38.907
		c0-5.493,4.693-8.811,12.932-8.811c9.612,0,12.244,4.348,15.79,4.348c4.12,0,5.951-5.264,5.951-7.895
		c0-7.552-14.991-9.155-21.742-9.155c-13.159,0-27.807,5.836-27.807,22.886c0,27.121,36.733,21.857,36.733,39.022
		C326.393,406.855,320.442,409.945,313.576,409.945z"/>
	<path style="fill:#FFFFFF;" d="M373.305,409.945c-11.672,0-14.762-8.812-19.454-8.812c-3.547,0-6.522,4.806-6.522,8.01
		c0,6.637,11.444,14.19,26.434,14.19c15.79,0,27.235-8.468,27.235-24.832c0-29.639-36.733-24.718-36.733-38.907
		c0-5.493,4.692-8.811,12.931-8.811c9.613,0,12.245,4.348,15.791,4.348c4.12,0,5.951-5.264,5.951-7.895
		c0-7.552-14.991-9.155-21.743-9.155c-13.159,0-27.807,5.836-27.807,22.886c0,27.121,36.733,21.857,36.733,39.022
		C386.121,406.855,380.171,409.945,373.305,409.945z"/>
</g>
</svg>
